<?xml version="1.0" encoding="UTF-8" standalone="no"?>
<svg
   xmlns:dc="http://purl.org/dc/elements/1.1/"
   xmlns:cc="http://creativecommons.org/ns#"
   xmlns:rdf="http://www.w3.org/1999/02/22-rdf-syntax-ns#"
   xmlns:svg="http://www.w3.org/2000/svg"
   xmlns="http://www.w3.org/2000/svg"
   width="100%"
   height="100%"
   viewBox="0 0 100 100"
   version="1.1"
   id="svg8">
  <defs
     id="defs2" />
  <metadata
     id="metadata5">
    <rdf:RDF>
      <cc:Work
         rdf:about="">
        <dc:format>image/svg+xml</dc:format>
        <dc:type
           rdf:resource="http://purl.org/dc/dcmitype/StillImage" />
        <dc:title></dc:title>
      </cc:Work>
    </rdf:RDF>
  </metadata>
  <g
     id="layer1"
     transform="translate(-56.979953,-89.910068)">
    <g
       id="g1093"
       transform="matrix(0.26458333,0,0,0.26458333,33.583955,70.118089)">
      <g
         data-stacking-layer="rootBackgroundAndBorders"
         id="g835" />
      <g
         data-stacking-layer="childStackingContextsWithNegativeStackLevels"
         id="g837" />
      <g
         data-stacking-layer="inFlowNonInlineNonPositionedDescendants"
         id="g839" />
      <g
         data-stacking-layer="nonPositionedFloats"
         id="g841" />
      <g
         data-stacking-layer="inFlowInlineLevelNonPositionedDescendants"
         id="g843" />
      <g
         data-stacking-layer="childStackingContextsWithStackLevelZeroAndPositionedDescendantsWithStackLevelZero"
         id="g845" />
      <g
         data-stacking-layer="childStackingContextsWithPositiveStackLevels"
         id="g847" />
      <g
         data-tag="div"
         id="sc-cydatY1"
         class="sc-cydatY cxiSUg blockWrapper blockWrapper-0 svg-blockWrapper-0"
         data-z-index="auto"
         data-stacking-context="true"
         mask="url(#mask-for-sc-cydatY11)"
         aria-owns="sc-csqUdf1">
        <mask
           id="mask-for-sc-cydatY11">
          <rect
             width="512"
             height="512"
             x="0"
             y="0"
             fill="#ffffff"
             id="rect849" />
        </mask>
        <g
           data-tag="div"
           id="sc-csqUdf1"
           class="sc-csqUdf kHBnFZ block-wrapper"
           data-z-index="auto"
           data-stacking-context="true"
           aria-owns="v6Y6Po3bO">
          <g
             data-tag="div"
             id="wrapper-print-block"
             class="sc-kfzXVZ bTaGXO"
             data-z-index="auto"
             data-stacking-context="true"
             aria-owns="RrU6_lB08 huLQynYlj 0Buf9FcmG nKeICIaZme 6MBwdFmEGm RvPi3rc1dT">
            <g
               data-tag="div"
               id="RrU6_lB08"
               class="sc-deDhwC gosaze graphic-layer  "
               data-z-index="auto"
               data-stacking-context="true"
               aria-owns="sc-fcKQSD1">
              <g
                 data-tag="div"
                 id="sc-fcKQSD1"
                 class="sc-fcKQSD dRDfgO"
                 data-z-index="auto"
                 data-stacking-context="true"
                 aria-owns="sc-mHBLV1">
                <g
                   data-tag="div"
                   id="sc-mHBLV1"
                   class="sc-mHBLV cIZnuG"
                   data-z-index="auto"
                   data-stacking-context="true"
                   aria-owns="sc-fzSxks1">
                  <g
                     data-tag="div"
                     id="sc-fzSxks1"
                     class="sc-fzSxks euvSfV itemAnimation"
                     data-z-index="auto"
                     data-stacking-context="true"
                     aria-owns="sc-fQcmUk1">
                    <g
                       data-tag="svg"
                       id="sc-fQcmUk1"
                       class="sc-fQcmUk dFdwND itemAnimation"
                       data-z-index="auto"
                       data-stacking-context="true"
                       mask="url(#mask-for-sc-fQcmUk11)">
                      <g
                         data-stacking-layer="rootBackgroundAndBorders"
                         id="g867" />
                      <g
                         data-stacking-layer="childStackingContextsWithNegativeStackLevels"
                         id="g869" />
                      <g
                         data-stacking-layer="inFlowNonInlineNonPositionedDescendants"
                         id="g871" />
                      <g
                         data-stacking-layer="nonPositionedFloats"
                         id="g873" />
                      <g
                         data-stacking-layer="inFlowInlineLevelNonPositionedDescendants"
                         id="g875" />
                      <g
                         data-stacking-layer="childStackingContextsWithStackLevelZeroAndPositionedDescendantsWithStackLevelZero"
                         id="g877" />
                      <g
                         data-stacking-layer="childStackingContextsWithPositiveStackLevels"
                         id="g879" />
                      <mask
                         id="mask-for-sc-fQcmUk11">
                        <rect
                           width="286.31537"
                           height="146.8647"
                           x="147.32628"
                           y="248.30446"
                           fill="#ffffff"
                           id="rect881" />
                      </mask>
                      <g
                         class="svg-content sc-fQcmUk dFdwND itemAnimation"
                         data-view-box="0 0 277 131"
                         data-width=""
                         data-height=""
                         transform="matrix(1.01058,0.0483479,-0.0487448,1.01887,153.712,248.304)"
                         id="g898">
                        <path
                           d="m 278.223,6.985 c 0.004,-2.209 0.008,-4.299 0.012,-6.463 C 185.568,0.347 93.004,0.174 0.343,0 0.339,2.195 0.334,4.287 0.331,6.461 c 1.854,0.484 3.383,1.383 3.458,3.579 0.081,2.371 -1.51,3.367 -3.569,3.924 -0.002,1.787 0.035,3.484 -0.026,5.179 -0.032,0.894 0.2,1.336 1.146,1.601 1.405,0.393 2.254,1.445 2.404,2.942 0.148,1.472 -0.383,2.662 -1.671,3.425 -0.546,0.324 -1.176,0.506 -1.772,0.755 -0.003,2.151 -0.008,4.293 -0.012,6.395 2.441,0.822 3.401,1.822 3.45,3.574 0.067,2.381 -1.506,3.367 -3.477,3.896 -0.004,2.202 -0.008,4.293 -0.012,6.479 0.714,0.093 1.346,0.186 1.979,0.255 12.57,1.352 19.524,15.784 12.722,26.478 -3.052,4.796 -7.457,7.509 -13.131,8.137 -0.757,0.083 -1.749,-0.123 -1.735,1.178 0.02,1.87 0,3.74 -0.004,5.558 2.593,0.895 3.533,1.902 3.565,3.716 0.034,1.853 -0.893,2.884 -3.512,3.857 -0.004,2.072 -0.007,4.172 -0.013,6.395 1.965,0.453 3.482,1.449 3.491,3.729 0.008,2.309 -1.608,3.211 -3.503,3.738 -0.004,2.191 -0.007,4.291 -0.012,6.428 1.882,0.475 3.342,1.355 3.473,3.459 0.154,2.459 -1.473,3.484 -3.557,4.029 -0.002,1.18 -0.004,2.232 -0.007,3.285 -0.002,1.027 -0.003,2.053 -0.005,3.023 92.863,0.174 185.428,0.348 277.984,0.523 0.004,-2.238 0.008,-4.326 0.012,-6.379 -2.424,-0.736 -3.395,-1.75 -3.459,-3.535 -0.068,-1.896 0.834,-2.93 3.518,-3.994 0.002,-2.08 0.008,-4.178 0.012,-6.326 -1.9,-0.527 -3.441,-1.4 -3.5,-3.623 -0.061,-2.393 1.578,-3.332 3.539,-3.92 0.004,-2.129 0.008,-4.178 0.012,-6.344 -2.541,-0.846 -3.504,-1.873 -3.531,-3.69 -0.027,-1.878 0.941,-2.952 3.48,-3.826 0.004,-2.132 0.008,-4.273 0.014,-6.578 -4.67,-0.28 -8.773,-1.802 -12.104,-5.078 -3.381,-3.327 -5.127,-7.402 -5.24,-12.116 -0.092,-3.734 0.965,-7.19 3.129,-10.259 3.48,-4.937 8.406,-7.258 14.297,-7.6 0.006,-2.301 0.01,-4.4 0.014,-6.468 -2.521,-0.855 -3.455,-1.86 -3.486,-3.691 -0.033,-1.868 0.939,-2.935 3.484,-3.809 0.004,-2.138 0.008,-4.282 0.012,-6.441 -1.934,-0.477 -3.359,-1.401 -3.457,-3.512 -0.109,-2.39 1.473,-3.391 3.453,-3.923 0.004,-2.234 0.008,-4.375 0.012,-6.478 -2.428,-0.756 -3.404,-1.772 -3.443,-3.559 -0.058,-2.385 1.513,-3.365 3.47,-3.864 z"
                           fill="#f89941"
                           order="0"
                           opacity="1"
                           color="#000000"
                           stroke="none"
                           stroke-linejoin="round"
                           id="path884" />
                        <path
                           d="M 243.297,12.691 36.091,12.301 C 28.797,12.288 22.849,18.212 22.835,25.507 l -0.155,82.389 c -0.013,7.295 5.912,13.244 13.207,13.258 l 207.207,0.387 c 7.295,0.014 13.242,-5.91 13.256,-13.205 l 0.154,-82.389 c 0.014,-7.297 -5.91,-13.243 -13.207,-13.256 z m 11.037,95.64 c -0.012,6.184 -5.053,11.205 -11.236,11.195 L 35.891,119.135 C 29.707,119.123 24.684,114.084 24.697,107.901 L 24.852,25.51 c 0.011,-6.184 5.051,-11.206 11.236,-11.194 l 207.206,0.389 c 6.184,0.012 11.207,5.052 11.195,11.237 z"
                           fill="#1e1e1e"
                           order="1"
                           opacity="1"
                           color="#000000"
                           stroke="none"
                           stroke-linejoin="round"
                           id="path886" />
                        <path
                           d="m 68.472,12.867 -1.683,-0.004 c -0.091,0 -0.167,0.075 -0.167,0.167 l -0.2,106.501 c 0,0.094 0.075,0.168 0.166,0.168 l 1.684,0.004 c 0.091,0 0.166,-0.076 0.167,-0.168 l 0.2,-106.502 c -10e-4,-0.092 -0.076,-0.167 -0.167,-0.166 z"
                           fill="#1e1e1e"
                           order="2"
                           opacity="1"
                           color="#000000"
                           stroke="none"
                           stroke-linejoin="round"
                           id="path888" />
                        <path
                           d="m 207.559,13.127 -1.684,-0.003 c -0.09,0 -0.166,0.076 -0.166,0.167 l -0.199,106.502 c 0,0.092 0.074,0.166 0.166,0.168 l 1.684,0.002 c 0.09,0 0.166,-0.074 0.166,-0.166 l 0.199,-106.502 c 0,-0.092 -0.075,-0.168 -0.166,-0.168 z"
                           fill="#1e1e1e"
                           order="3"
                           opacity="1"
                           color="#000000"
                           stroke="none"
                           stroke-linejoin="round"
                           id="path890" />
                        <path
                           d="m 40.473,45.25 5.576,-3.004 5.637,2.889 -1.135,-6.232 4.49,-4.468 -6.277,-0.847 -2.863,-5.651 -2.744,5.709 -6.26,0.975 4.582,4.375"
                           fill="#1e1e1e"
                           order="4"
                           opacity="1"
                           color="#000000"
                           stroke="none"
                           stroke-linejoin="round"
                           id="path892" />
                        <path
                           d="m 41.099,74.104 5.576,-3.004 5.637,2.89 -1.135,-6.234 4.49,-4.467 -6.277,-0.846 -2.863,-5.652 -2.744,5.709 -6.26,0.977 4.581,4.374"
                           fill="#1e1e1e"
                           order="5"
                           opacity="1"
                           color="#000000"
                           stroke="none"
                           stroke-linejoin="round"
                           id="path894" />
                        <path
                           d="m 56.292,92.143 -6.278,-0.845 -2.861,-5.652 -2.745,5.71 -6.259,0.975 4.581,4.375 -1.006,6.254 5.576,-3.006 5.637,2.891 -1.135,-6.233"
                           fill="#1e1e1e"
                           order="6"
                           opacity="1"
                           color="#000000"
                           stroke="none"
                           stroke-linejoin="round"
                           id="path896" />
                      </g>
                    </g>
                  </g>
                </g>
              </g>
            </g>
            <g
               data-tag="div"
               id="huLQynYlj"
               class="sc-deDhwC gosaze graphic-layer  "
               data-z-index="auto"
               data-stacking-context="true"
               aria-owns="sc-fcKQSD2">
              <g
                 data-tag="div"
                 id="sc-fcKQSD2"
                 class="sc-fcKQSD dRDfgO"
                 data-z-index="auto"
                 data-stacking-context="true"
                 aria-owns="sc-mHBLV2">
                <g
                   data-tag="div"
                   id="sc-mHBLV2"
                   class="sc-mHBLV cIZnuG"
                   data-z-index="auto"
                   data-stacking-context="true"
                   aria-owns="sc-fzSxks2">
                  <g
                     data-tag="div"
                     id="sc-fzSxks2"
                     class="sc-fzSxks euvSfV itemAnimation"
                     data-z-index="auto"
                     data-stacking-context="true"
                     aria-owns="sc-fQcmUk2">
                    <g
                       data-tag="svg"
                       id="sc-fQcmUk2"
                       class="sc-fQcmUk dFdwND itemAnimation"
                       data-z-index="auto"
                       data-stacking-context="true"
                       mask="url(#mask-for-sc-fQcmUk21)">
                      <g
                         data-stacking-layer="rootBackgroundAndBorders"
                         id="g905" />
                      <g
                         data-stacking-layer="childStackingContextsWithNegativeStackLevels"
                         id="g907" />
                      <g
                         data-stacking-layer="inFlowNonInlineNonPositionedDescendants"
                         id="g909" />
                      <g
                         data-stacking-layer="nonPositionedFloats"
                         id="g911" />
                      <g
                         data-stacking-layer="inFlowInlineLevelNonPositionedDescendants"
                         id="g913" />
                      <g
                         data-stacking-layer="childStackingContextsWithStackLevelZeroAndPositionedDescendantsWithStackLevelZero"
                         id="g915" />
                      <g
                         data-stacking-layer="childStackingContextsWithPositiveStackLevels"
                         id="g917" />
                      <mask
                         id="mask-for-sc-fQcmUk21">
                        <rect
                           width="305.01285"
                           height="200.58156"
                           x="88.090576"
                           y="74.616714"
                           fill="#ffffff"
                           id="rect919" />
                      </mask>
                      <g
                         class="svg-content sc-fQcmUk dFdwND itemAnimation"
                         data-view-box="0 0 277 131"
                         data-width=""
                         data-height=""
                         transform="matrix(0.977323,-0.261614,0.261788,0.977972,88.0906,147.084)"
                         id="g936">
                        <path
                           d="m 278.223,6.985 c 0.004,-2.209 0.008,-4.299 0.012,-6.463 C 185.568,0.347 93.004,0.174 0.343,0 0.339,2.195 0.334,4.287 0.331,6.461 c 1.854,0.484 3.383,1.383 3.458,3.579 0.081,2.371 -1.51,3.367 -3.568,3.924 -0.003,1.787 0.034,3.484 -0.026,5.179 -0.032,0.894 0.2,1.336 1.146,1.601 1.405,0.393 2.254,1.445 2.404,2.942 0.148,1.472 -0.383,2.662 -1.671,3.425 -0.546,0.324 -1.176,0.506 -1.772,0.755 -0.003,2.151 -0.008,4.293 -0.012,6.395 2.441,0.822 3.401,1.822 3.45,3.574 0.067,2.381 -1.506,3.367 -3.477,3.896 -0.005,2.202 -0.009,4.293 -0.013,6.479 0.714,0.093 1.347,0.186 1.979,0.255 12.569,1.352 19.523,15.784 12.722,26.478 -3.052,4.796 -7.457,7.509 -13.131,8.138 -0.757,0.082 -1.749,-0.123 -1.735,1.178 0.021,1.869 0,3.74 -0.004,5.558 2.593,0.896 3.533,1.901 3.565,3.716 0.034,1.854 -0.894,2.885 -3.513,3.857 -0.004,2.072 -0.007,4.172 -0.013,6.395 1.965,0.453 3.482,1.449 3.491,3.729 0.008,2.309 -1.608,3.211 -3.503,3.737 -0.004,2.191 -0.007,4.291 -0.012,6.429 1.882,0.475 3.342,1.354 3.473,3.459 0.154,2.459 -1.473,3.483 -3.557,4.028 -0.002,1.181 -0.005,2.232 -0.008,3.285 -0.002,1.027 -0.003,2.053 -0.005,3.023 92.863,0.174 185.429,0.348 277.984,0.523 0.004,-2.238 0.008,-4.326 0.012,-6.379 -2.424,-0.736 -3.395,-1.75 -3.459,-3.535 -0.067,-1.896 0.834,-2.931 3.519,-3.994 0.002,-2.08 0.008,-4.178 0.012,-6.326 -1.9,-0.527 -3.441,-1.4 -3.5,-3.623 -0.062,-2.393 1.578,-3.332 3.539,-3.92 0.004,-2.129 0.008,-4.178 0.012,-6.344 -2.541,-0.847 -3.504,-1.873 -3.531,-3.69 -0.026,-1.878 0.941,-2.952 3.48,-3.826 0.004,-2.132 0.008,-4.272 0.014,-6.577 -4.67,-0.281 -8.772,-1.803 -12.104,-5.078 -3.381,-3.328 -5.127,-7.402 -5.24,-12.117 -0.092,-3.733 0.965,-7.189 3.129,-10.258 3.48,-4.937 8.406,-7.258 14.297,-7.6 0.006,-2.301 0.01,-4.4 0.015,-6.468 -2.521,-0.854 -3.455,-1.86 -3.486,-3.691 -0.033,-1.868 0.938,-2.935 3.483,-3.809 0.005,-2.138 0.009,-4.282 0.013,-6.441 -1.935,-0.477 -3.359,-1.401 -3.457,-3.512 -0.109,-2.39 1.473,-3.391 3.453,-3.923 0.004,-2.234 0.008,-4.375 0.012,-6.478 -2.428,-0.756 -3.404,-1.772 -3.443,-3.559 -0.058,-2.386 1.513,-3.366 3.47,-3.865 z"
                           fill="#ef4044"
                           order="0"
                           opacity="1"
                           color="#000000"
                           stroke="none"
                           stroke-linejoin="round"
                           id="path922" />
                        <path
                           d="M 243.297,12.691 36.091,12.301 C 28.797,12.288 22.85,18.212 22.835,25.507 l -0.154,82.389 c -0.014,7.295 5.911,13.244 13.207,13.258 l 207.206,0.388 c 7.296,0.014 13.242,-5.91 13.257,-13.205 l 0.153,-82.389 c 0.014,-7.298 -5.91,-13.244 -13.207,-13.257 z m 11.037,95.64 c -0.012,6.185 -5.053,11.205 -11.235,11.195 L 35.892,119.135 C 29.707,119.123 24.685,114.084 24.698,107.901 L 24.853,25.51 c 0.011,-6.184 5.051,-11.206 11.235,-11.194 l 207.206,0.389 c 6.185,0.012 11.207,5.052 11.195,11.237 z"
                           fill="#fffffd"
                           order="1"
                           opacity="1"
                           color="#000000"
                           stroke="none"
                           stroke-linejoin="round"
                           id="path924" />
                        <path
                           d="m 68.472,12.867 -1.684,-0.004 c -0.091,0 -0.167,0.075 -0.167,0.167 l -0.2,106.501 c 0,0.094 0.075,0.168 0.166,0.168 l 1.685,0.004 c 0.091,0 0.166,-0.076 0.167,-0.168 l 0.2,-106.502 c -10e-4,-0.092 -0.076,-0.167 -0.167,-0.166 z"
                           fill="#fffffd"
                           order="2"
                           opacity="1"
                           color="#000000"
                           stroke="none"
                           stroke-linejoin="round"
                           id="path926" />
                        <path
                           d="m 207.559,13.127 -1.685,-0.003 c -0.09,0 -0.166,0.076 -0.166,0.167 l -0.199,106.502 c 0,0.092 0.074,0.166 0.166,0.168 l 1.685,0.002 c 0.09,0 0.166,-0.074 0.166,-0.166 l 0.199,-106.502 c 0,-0.092 -0.075,-0.168 -0.166,-0.168 z"
                           fill="#fffffd"
                           order="3"
                           opacity="1"
                           color="#000000"
                           stroke="none"
                           stroke-linejoin="round"
                           id="path928" />
                        <path
                           d="m 40.473,45.25 5.576,-3.004 5.637,2.889 -1.135,-6.232 4.49,-4.468 -6.277,-0.847 -2.863,-5.651 -2.744,5.709 -6.26,0.975 4.582,4.375"
                           fill="#ffffff"
                           order="4"
                           opacity="1"
                           color="#000000"
                           stroke="none"
                           stroke-linejoin="round"
                           id="path930" />
                        <path
                           d="m 41.099,74.104 5.576,-3.004 5.637,2.891 -1.135,-6.235 4.49,-4.467 -6.277,-0.846 -2.863,-5.652 -2.744,5.709 -6.26,0.977 4.581,4.374"
                           fill="#ffffff"
                           order="5"
                           opacity="1"
                           color="#000000"
                           stroke="none"
                           stroke-linejoin="round"
                           id="path932" />
                        <path
                           d="m 56.292,92.143 -6.278,-0.846 -2.861,-5.651 -2.745,5.71 -6.259,0.975 4.581,4.375 -1.006,6.253 5.576,-3.005 5.637,2.891 -1.135,-6.233"
                           fill="#ffffff"
                           order="6"
                           opacity="1"
                           color="#000000"
                           stroke="none"
                           stroke-linejoin="round"
                           id="path934" />
                      </g>
                    </g>
                  </g>
                </g>
              </g>
            </g>
            <g
               data-tag="div"
               id="0Buf9FcmG"
               class="sc-deDhwC gosaze graphic-layer  "
               data-z-index="auto"
               data-stacking-context="true"
               aria-owns="text-item0Buf9FcmG"
               transform="rotate(3.1314956,410.3356,167.84697)">
              <g
                 data-tag="div"
                 id="text-item0Buf9FcmG"
                 class="text-div-background itemAnimation js-text-child-element"
                 data-z-index="auto"
                 data-stacking-context="true"
                 aria-owns="sc-iHDLbo1">
                <g
                   data-tag="div"
                   id="sc-iHDLbo1"
                   class="sc-iHDLbo jQHIWW"
                   data-z-index="auto"
                   data-stacking-context="true"
                   aria-owns="sc-bxiBER1">
                  <g
                     data-tag="div"
                     id="sc-bxiBER1"
                     class="sc-bxiBER hBvjFj"
                     data-z-index="auto"
                     data-stacking-context="true"
                     aria-owns="mce-mode-content-body1">
                    <g
                       data-tag="div"
                       id="mce-mode-content-body1"
                       class="mce-mode-content-body"
                       data-z-index="auto"
                       data-stacking-context="true"
                       aria-owns="p1">
                      <g
                         data-tag="p"
                         id="p1"
                         data-z-index="auto"
                         data-stacking-context="true">
                        <text
                           color="#1e1e1e"
                           dominant-baseline="text-after-edge"
                           font-family="Poppins, sans-serif"
                           font-size="34px"
                           font-stretch="100%"
                           font-style="normal"
                           font-variant="normal"
                           font-weight="700"
                           direction="ltr"
                           letter-spacing="normal"
                           text-decoration="none solid rgb(30, 30, 30)"
                           text-anchor="start"
                           text-rendering="auto"
                           unicode-bidi="normal"
                           word-spacing="0px"
                           writing-mode="lr-tb"
                           user-select="auto"
                           fill="#1e1e1e"
                           id="text945"
                           style="text-decoration:none;text-decoration-line:none;text-decoration-style:solid;text-decoration-color:#000000"><tspan
                             xml:space="preserve"
                             x="230.25806"
                             y="348.39511"
                             lengthAdjust="spacingAndGlyphs"
                             id="tspan943">TICKET</tspan></text>
                      </g>
                    </g>
                  </g>
                </g>
              </g>
            </g>
            <g
               data-tag="div"
               id="nKeICIaZme"
               class="sc-deDhwC gosaze graphic-layer  "
               data-z-index="auto"
               data-stacking-context="true"
               aria-owns="text-itemnKeICIaZme"
               transform="rotate(-88.301056,386.2562,365.23969)">
              <g
                 data-tag="div"
                 id="text-itemnKeICIaZme"
                 class="text-div-background itemAnimation js-text-child-element"
                 data-z-index="auto"
                 data-stacking-context="true"
                 aria-owns="sc-iHDLbo2">
                <g
                   data-tag="div"
                   id="sc-iHDLbo2"
                   class="sc-iHDLbo jQHIWW"
                   data-z-index="auto"
                   data-stacking-context="true"
                   aria-owns="sc-bxiBER2">
                  <g
                     data-tag="div"
                     id="sc-bxiBER2"
                     class="sc-bxiBER hBvjFj"
                     data-z-index="auto"
                     data-stacking-context="true"
                     aria-owns="mce-mode-content-body2">
                    <g
                       data-tag="div"
                       id="mce-mode-content-body2"
                       class="mce-mode-content-body"
                       data-z-index="auto"
                       data-stacking-context="true"
                       aria-owns="p2">
                      <g
                         data-tag="p"
                         id="p2"
                         data-z-index="auto"
                         data-stacking-context="true">
                        <text
                           color="#1e1e1e"
                           dominant-baseline="text-after-edge"
                           font-family="Lora, serif"
                           font-size="19px"
                           font-stretch="100%"
                           font-style="normal"
                           font-variant="normal"
                           font-weight="700"
                           direction="ltr"
                           letter-spacing="normal"
                           text-decoration="none solid rgb(30, 30, 30)"
                           text-anchor="start"
                           text-rendering="auto"
                           unicode-bidi="normal"
                           word-spacing="0px"
                           writing-mode="lr-tb"
                           user-select="auto"
                           fill="#1e1e1e"
                           id="text955"
                           style="text-decoration:none;text-decoration-line:none;text-decoration-style:solid;text-decoration-color:#000000"><tspan
                             xml:space="preserve"
                             x="370.30771"
                             y="372.54697"
                             lengthAdjust="spacingAndGlyphs"
                             id="tspan953">63589703</tspan></text>
                      </g>
                    </g>
                  </g>
                </g>
              </g>
            </g>
            <g
               data-tag="div"
               id="6MBwdFmEGm"
               class="sc-deDhwC gosaze graphic-layer  "
               data-z-index="auto"
               data-stacking-context="true"
               aria-owns="text-item6MBwdFmEGm"
               transform="translate(-4.2857143,-18.571429)">
              <g
                 data-tag="div"
                 id="text-item6MBwdFmEGm"
                 class="text-div-background itemAnimation js-text-child-element"
                 data-z-index="auto"
                 data-stacking-context="true"
                 aria-owns="sc-iHDLbo3"
                 transform="rotate(-15.094244,238.16542,193.21848)">
                <g
                   data-tag="div"
                   id="sc-iHDLbo3"
                   class="sc-iHDLbo jQHIWW"
                   data-z-index="auto"
                   data-stacking-context="true"
                   aria-owns="sc-bxiBER3">
                  <g
                     data-tag="div"
                     id="sc-bxiBER3"
                     class="sc-bxiBER hBvjFj"
                     data-z-index="auto"
                     data-stacking-context="true"
                     aria-owns="mce-mode-content-body3">
                    <g
                       data-tag="div"
                       id="mce-mode-content-body3"
                       class="mce-mode-content-body"
                       data-z-index="auto"
                       data-stacking-context="true"
                       aria-owns="p3">
                      <g
                         data-tag="p"
                         id="p3"
                         data-z-index="auto"
                         data-stacking-context="true">
                        <text
                           color="#fffffd"
                           dominant-baseline="text-after-edge"
                           font-family="Poppins, sans-serif"
                           font-size="34px"
                           font-stretch="100%"
                           font-style="normal"
                           font-variant="normal"
                           font-weight="700"
                           direction="ltr"
                           letter-spacing="normal"
                           text-decoration="none solid rgb(255, 255, 253)"
                           text-anchor="start"
                           text-rendering="auto"
                           unicode-bidi="normal"
                           word-spacing="0px"
                           writing-mode="lr-tb"
                           user-select="auto"
                           fill="#fffffd"
                           id="text965"
                           style="text-decoration:none;text-decoration-line:none;text-decoration-style:solid;text-decoration-color:#000000"><tspan
                             xml:space="preserve"
                             x="177.17648"
                             y="214.80022"
                             lengthAdjust="spacingAndGlyphs"
                             id="tspan963">TICKET</tspan></text>
                      </g>
                    </g>
                  </g>
                </g>
              </g>
            </g>
            <g
               data-tag="div"
               id="RvPi3rc1dT"
               class="sc-deDhwC gosaze graphic-layer  "
               data-z-index="auto"
               data-stacking-context="true"
               aria-owns="text-itemRvPi3rc1dT"
               transform="rotate(-105.45791,333.50577,181.89991)">
              <g
                 data-tag="div"
                 id="text-itemRvPi3rc1dT"
                 class="text-div-background itemAnimation js-text-child-element"
                 data-z-index="auto"
                 data-stacking-context="true"
                 aria-owns="sc-iHDLbo4">
                <g
                   data-tag="div"
                   id="sc-iHDLbo4"
                   class="sc-iHDLbo jQHIWW"
                   data-z-index="auto"
                   data-stacking-context="true"
                   aria-owns="sc-bxiBER4">
                  <g
                     data-tag="div"
                     id="sc-bxiBER4"
                     class="sc-bxiBER hBvjFj"
                     data-z-index="auto"
                     data-stacking-context="true"
                     aria-owns="mce-mode-content-body4">
                    <g
                       data-tag="div"
                       id="mce-mode-content-body4"
                       class="mce-mode-content-body"
                       data-z-index="auto"
                       data-stacking-context="true"
                       aria-owns="p4">
                      <g
                         data-tag="p"
                         id="p4"
                         data-z-index="auto"
                         data-stacking-context="true">
                        <text
                           color="#fffffd"
                           dominant-baseline="text-after-edge"
                           font-family="Lora, serif"
                           font-size="19px"
                           font-stretch="100%"
                           font-style="normal"
                           font-variant="normal"
                           font-weight="700"
                           direction="ltr"
                           letter-spacing="normal"
                           text-decoration="none solid rgb(255, 255, 253)"
                           text-anchor="start"
                           text-rendering="auto"
                           unicode-bidi="normal"
                           word-spacing="0px"
                           writing-mode="lr-tb"
                           user-select="auto"
                           fill="#fffffd"
                           id="text975"
                           style="text-decoration:none;text-decoration-line:none;text-decoration-style:solid;text-decoration-color:#000000"><tspan
                             xml:space="preserve"
                             x="309.66592"
                             y="198.92209"
                             lengthAdjust="spacingAndGlyphs"
                             id="tspan973">63589703</tspan></text>
                      </g>
                    </g>
                  </g>
                </g>
              </g>
            </g>
          </g>
        </g>
      </g>
    </g>
  </g>
</svg>
